<svg width="75" height="99" viewBox="0 0 75 99" fill="none" xmlns="http://www.w3.org/2000/svg">
<g filter="url(#filter0_d)">
<rect x="28.2896" y="0.333008" width="51.9139" height="51.9139" rx="15" transform="rotate(30 28.2896 0.333008)" fill="#AD5AFF"/>
</g>
<path d="M45.276 29.0599L47.5602 30.3787L49.8574 26.3999C49.4946 26.1182 48.2097 25.2137 46.6312 24.3024C43.3378 22.4009 39.8855 23.1701 37.6871 26.9778L35.6639 30.4822L32.0295 28.3839L29.4614 32.8319L33.0958 34.9302L26.6342 46.122L31.0901 48.6947L37.5512 37.5038L41.0386 39.5173L44.1602 35.3889L40.1182 33.0553L41.8874 29.9909C42.6306 28.7059 43.4848 28.0258 45.276 29.0599V29.0599Z" fill="white"/>
<defs>
<filter id="filter0_d" x="0.820312" y="5.8208" width="73.9399" height="92.9399" filterUnits="userSpaceOnUse" color-interpolation-filters="sRGB">
<feFlood flood-opacity="0" result="BackgroundImageFix"/>
<feColorMatrix in="SourceAlpha" type="matrix" values="0 0 0 0 0 0 0 0 0 0 0 0 0 0 0 0 0 0 127 0"/>
<feMorphology radius="5" operator="erode" in="SourceAlpha" result="effect1_dropShadow"/>
<feOffset dy="26"/>
<feGaussianBlur stdDeviation="6"/>
<feColorMatrix type="matrix" values="0 0 0 0 0.678431 0 0 0 0 0.352941 0 0 0 0 1 0 0 0 0.12 0"/>
<feBlend mode="normal" in2="BackgroundImageFix" result="effect1_dropShadow"/>
<feBlend mode="normal" in="SourceGraphic" in2="effect1_dropShadow" result="shape"/>
</filter>
</defs>
</svg>
