<svg width="64" height="64" viewBox="0 0 64 64" fill="none" xmlns="http://www.w3.org/2000/svg">
<rect x="0.418945" y="13.5005" width="51.9139" height="51.9139" rx="15" transform="rotate(-15 0.418945 13.5005)" fill="#6FCF97"/>
<path d="M47.8592 40.7743L23.2714 47.3626C22.9763 47.4417 22.801 47.7453 22.88 48.0403C22.9591 48.3354 23.2627 48.5107 23.5578 48.4317L48.1457 41.8433C48.4408 41.7643 48.6161 41.4606 48.537 41.1656C48.4579 40.8705 48.1543 40.6953 47.8592 40.7743Z" fill="white"/>
<path d="M25.8286 39.8026L22.6215 40.6619C22.3264 40.741 22.1511 41.0447 22.2301 41.3397L23.9488 47.754C24.0279 48.049 24.3315 48.2243 24.6266 48.1452L27.8337 47.2859C28.1288 47.2068 28.3041 46.9032 28.225 46.6081L26.5063 40.1939C26.4273 39.8988 26.1236 39.7235 25.8286 39.8026ZM27.0127 46.3601L24.8747 46.933L23.4424 41.5877L25.5805 41.0148L27.0128 46.3601L27.0127 46.3601Z" fill="white"/>
<path d="M30.8105 32.7386L27.6034 33.598C27.3083 33.677 27.133 33.9807 27.2121 34.2757L30.363 46.0352C30.4421 46.3303 30.7457 46.5056 31.0408 46.4265L34.2479 45.5672C34.543 45.4881 34.7183 45.1845 34.6392 44.8894L31.4883 33.1299C31.4092 32.8349 31.1056 32.6596 30.8105 32.7386ZM33.4269 44.6413L31.2888 45.2142L28.4243 34.5238L30.5624 33.9509L33.4269 44.6413Z" fill="white"/>
<path d="M37.7978 33.1581L34.5907 34.0174C34.2956 34.0965 34.1203 34.4001 34.1994 34.6952L36.7774 44.3165C36.8565 44.6116 37.1601 44.7869 37.4552 44.7079L40.6623 43.8485C40.9574 43.7694 41.1327 43.4658 41.0536 43.1707L38.4756 33.5494C38.3965 33.2543 38.0929 33.079 37.7978 33.1581ZM39.8413 42.9227L37.7032 43.4956L35.4116 34.9432L37.5497 34.3703L39.8413 42.9227V42.9227Z" fill="white"/>
<path d="M42.4936 25.0253L39.2865 25.8846C38.9914 25.9637 38.8161 26.2673 38.8952 26.5624L43.1919 42.598C43.271 42.893 43.5746 43.0683 43.8697 42.9893L47.0768 42.1299C47.3719 42.0509 47.5472 41.7472 47.4681 41.4522L43.1714 25.4166C43.0923 25.1215 42.7887 24.9462 42.4936 25.0253ZM46.2558 41.2041L44.1177 41.777L40.1074 26.8104L42.2455 26.2375L46.2558 41.2041V41.2041Z" fill="white"/>
<path d="M21.9335 31.68C20.7543 31.996 20.0524 33.2119 20.3683 34.391C20.6843 35.5702 21.9001 36.2722 23.0793 35.9562C24.2585 35.6403 24.9605 34.4244 24.6445 33.2452C24.3285 32.0661 23.1127 31.3641 21.9335 31.68ZM22.7929 34.8871C22.2027 35.0453 21.5952 34.6936 21.4374 34.1046C21.2795 33.5155 21.6299 32.9072 22.22 32.7491C22.8101 32.591 23.4176 32.9427 23.5754 33.5317C23.7333 34.1207 23.383 34.729 22.7929 34.8871Z" fill="white"/>
<path d="M26.9154 24.6161C25.7363 24.932 25.0343 26.1479 25.3502 27.3271C25.6662 28.5062 26.8821 29.2082 28.0612 28.8923C29.2404 28.5763 29.9424 27.3604 29.6264 26.1813C29.3105 25.0021 28.0946 24.3001 26.9154 24.6161ZM27.7748 27.8232C27.1847 27.9813 26.5771 27.6296 26.4193 27.0406C26.2615 26.4515 26.6118 25.8433 27.2019 25.6851C27.792 25.527 28.3995 25.8787 28.5574 26.4677C28.7152 27.0568 28.3649 27.6651 27.7748 27.8232Z" fill="white"/>
<path d="M33.9027 25.0355C32.7236 25.3515 32.0216 26.5673 32.3376 27.7465C32.6535 28.9257 33.8694 29.6276 35.0485 29.3117C36.2277 28.9957 36.9297 27.7799 36.6137 26.6007C36.2978 25.4215 35.0819 24.7195 33.9027 25.0355ZM34.7621 28.2426C34.172 28.4007 33.5644 28.049 33.4066 27.46C33.2488 26.871 33.5991 26.2627 34.1892 26.1046C34.7793 25.9465 35.3868 26.2981 35.5447 26.8872C35.7025 27.4762 35.3522 28.0845 34.7621 28.2426Z" fill="white"/>
<path d="M38.5981 16.9027C37.4189 17.2186 36.7169 18.4345 37.0329 19.6137C37.3488 20.7929 38.5647 21.4948 39.7439 21.1789C40.923 20.8629 41.625 19.647 41.3091 18.4679C40.9931 17.2887 39.7772 16.5867 38.5981 16.9027ZM39.4574 20.1098C38.8673 20.2679 38.2598 19.9162 38.1019 19.3272C37.9441 18.7382 38.2944 18.1299 38.8845 17.9718C39.4746 17.8136 40.0822 18.1653 40.24 18.7543C40.3978 19.3433 40.0475 19.9517 39.4574 20.1098Z" fill="white"/>
<path d="M38.6185 19.9978C38.3542 19.8452 38.0153 19.936 37.8627 20.2003L34.8263 25.4596C34.6737 25.7239 34.7645 26.0628 35.0288 26.2154C35.1613 26.291 35.3122 26.3068 35.449 26.2701C35.5848 26.2337 35.7079 26.1457 35.7846 26.0129L38.8211 20.7536C38.9737 20.4893 38.8828 20.1504 38.6185 19.9978Z" fill="white"/>
<path d="M32.8525 26.286L29.1563 26.2269C28.8464 26.2206 28.5992 26.4655 28.5953 26.7714C28.5902 27.0776 28.8339 27.3285 29.139 27.3338L32.8351 27.393C32.888 27.3937 32.9389 27.3869 32.987 27.374C33.2201 27.3116 33.3929 27.1014 33.3972 26.8482C33.4026 26.5431 33.1586 26.2911 32.8525 26.286Z" fill="white"/>
<path d="M26.8332 27.6437C26.5874 27.462 26.2417 27.5145 26.0598 27.7592L22.8905 32.0527C22.7092 32.2995 22.7606 32.6455 23.0075 32.8268C23.1488 32.931 23.3232 32.9576 23.4793 32.9158C23.5958 32.8846 23.7031 32.8146 23.7808 32.7113L26.9501 28.4178C27.1314 28.171 27.08 27.825 26.8332 27.6437Z" fill="white"/>
</svg>
