<svg width="185" height="220" viewBox="0 0 185 220" fill="none" xmlns="http://www.w3.org/2000/svg">
<circle cx="153.45" cy="4.30233" r="4.30233" fill="#FFC48F"/>
<circle cx="180.698" cy="4.30233" r="4.30233" fill="#FFC48F"/>
<circle cx="121.899" cy="4.30233" r="4.30233" fill="#FFC48F"/>
<circle cx="94.651" cy="4.30233" r="4.30233" fill="#FFC48F"/>
<circle cx="67.4029" cy="4.30233" r="4.30233" fill="#FFC48F"/>
<circle cx="35.8526" cy="4.30233" r="4.30233" fill="#FFC48F"/>
<circle cx="4.30233" cy="4.30233" r="4.30233" fill="#FFC48F"/>
<circle cx="153.45" cy="34.4185" r="4.30233" fill="#FFC48F"/>
<circle cx="180.698" cy="34.4185" r="4.30233" fill="#FFC48F"/>
<circle cx="121.899" cy="34.4185" r="4.30233" fill="#FFC48F"/>
<circle cx="94.651" cy="34.4185" r="4.30233" fill="#FFC48F"/>
<circle cx="67.4029" cy="34.4185" r="4.30233" fill="#FFC48F"/>
<circle cx="35.8526" cy="34.4185" r="4.30233" fill="#FFC48F"/>
<circle cx="4.30233" cy="34.4185" r="4.30233" fill="#FFC48F"/>
<circle cx="153.45" cy="64.5347" r="4.30233" fill="#FFC48F"/>
<circle cx="180.698" cy="64.5347" r="4.30233" fill="#FFC48F"/>
<circle cx="121.899" cy="64.5347" r="4.30233" fill="#FFC48F"/>
<circle cx="94.651" cy="64.5347" r="4.30233" fill="#FFC48F"/>
<circle cx="67.4029" cy="64.5347" r="4.30233" fill="#FFC48F"/>
<circle cx="35.8526" cy="64.5347" r="4.30233" fill="#FFC48F"/>
<circle cx="4.30233" cy="64.5347" r="4.30233" fill="#FFC48F"/>
<circle cx="153.45" cy="94.651" r="4.30233" fill="#FFC48F"/>
<circle cx="180.698" cy="94.651" r="4.30233" fill="#FFC48F"/>
<circle cx="121.899" cy="94.651" r="4.30233" fill="#FFC48F"/>
<circle cx="94.651" cy="94.651" r="4.30233" fill="#FFC48F"/>
<circle cx="67.4029" cy="94.651" r="4.30233" fill="#FFC48F"/>
<circle cx="35.8526" cy="94.651" r="4.30233" fill="#FFC48F"/>
<circle cx="4.30233" cy="94.651" r="4.30233" fill="#FFC48F"/>
<circle cx="153.45" cy="124.768" r="4.30233" fill="#FFC48F"/>
<circle cx="180.698" cy="124.768" r="4.30233" fill="#FFC48F"/>
<circle cx="121.899" cy="124.768" r="4.30233" fill="#FFC48F"/>
<circle cx="94.651" cy="124.768" r="4.30233" fill="#FFC48F"/>
<circle cx="67.4029" cy="124.768" r="4.30233" fill="#FFC48F"/>
<circle cx="35.8526" cy="124.768" r="4.30233" fill="#FFC48F"/>
<circle cx="4.30233" cy="124.768" r="4.30233" fill="#FFC48F"/>
<circle cx="153.45" cy="154.884" r="4.30233" fill="#FFC48F"/>
<circle cx="180.698" cy="154.884" r="4.30233" fill="#FFC48F"/>
<circle cx="121.899" cy="154.884" r="4.30233" fill="#FFC48F"/>
<circle cx="94.651" cy="154.884" r="4.30233" fill="#FFC48F"/>
<circle cx="67.4029" cy="154.884" r="4.30233" fill="#FFC48F"/>
<circle cx="35.8526" cy="154.884" r="4.30233" fill="#FFC48F"/>
<circle cx="4.30233" cy="154.884" r="4.30233" fill="#FFC48F"/>
<circle cx="153.45" cy="185" r="4.30233" fill="#FFC48F"/>
<circle cx="180.698" cy="185" r="4.30233" fill="#FFC48F"/>
<circle cx="121.899" cy="185" r="4.30233" fill="#FFC48F"/>
<circle cx="94.651" cy="185" r="4.30233" fill="#FFC48F"/>
<circle cx="67.4029" cy="185" r="4.30233" fill="#FFC48F"/>
<circle cx="35.8526" cy="185" r="4.30233" fill="#FFC48F"/>
<circle cx="4.30233" cy="185" r="4.30233" fill="#FFC48F"/>
<circle cx="153.45" cy="215.116" r="4.30233" fill="#FFC48F"/>
<circle cx="180.698" cy="215.116" r="4.30233" fill="#FFC48F"/>
<circle cx="121.899" cy="215.116" r="4.30233" fill="#FFC48F"/>
<circle cx="94.651" cy="215.116" r="4.30233" fill="#FFC48F"/>
<circle cx="67.4029" cy="215.116" r="4.30233" fill="#FFC48F"/>
<circle cx="35.8526" cy="215.116" r="4.30233" fill="#FFC48F"/>
<circle cx="4.30233" cy="215.116" r="4.30233" fill="#FFC48F"/>
</svg>
