<svg width="91" height="91" viewBox="0 0 91 91" fill="none" xmlns="http://www.w3.org/2000/svg">
<rect x="19.084" y="0.0273438" width="73.7347" height="73.7347" rx="20" transform="rotate(15 19.084 0.0273438)" fill="#FF523D"/>
<path d="M59.9032 50.6684L54.7127 31.297C54.1761 29.2943 52.1102 28.1014 50.1074 28.6381C48.3071 29.1204 47.2038 30.8043 47.3291 32.5339L47.2626 32.6095C43.821 36.5258 39.34 39.3091 34.3038 40.6584L25.4186 43.0392C23.4111 43.5772 22.2217 45.6369 22.7598 47.6445L24.0574 52.4872C24.5952 54.4946 26.6551 55.684 28.6627 55.1461L29.8734 54.8217L32.1442 63.2966C32.6821 65.3041 34.7419 66.4934 36.7495 65.9554C38.7522 65.4189 39.945 63.3529 39.4083 61.3502L38.4351 57.7181L39.6458 57.3937C41.6532 56.8559 42.8426 54.7961 42.3047 52.7885L42.0842 51.9656C45.6875 51.6506 49.3237 52.0823 52.7952 53.2566L52.8917 53.2893C53.6671 54.8807 55.4833 55.7454 57.2444 55.2735L57.2445 55.2736C59.247 54.737 60.4397 52.6711 59.9032 50.6684ZM28.0139 52.7247C27.3448 52.9039 26.658 52.5075 26.4787 51.8384L25.1811 46.9956C25.0019 46.3264 25.3982 45.6399 26.0674 45.4606L34.5423 43.1897L36.4887 50.4539C35.6595 50.676 28.8635 52.497 28.0139 52.7247ZM36.9869 61.9989C37.1658 62.6664 36.7682 63.355 36.1006 63.534C35.4332 63.7128 34.7444 63.3152 34.5656 62.6477L32.2947 54.1728L34.7161 53.524L36.9869 61.9989ZM37.1375 52.8752C37.6522 52.7373 38.4292 52.5195 39.5803 52.3061L39.8833 53.4371C40.0626 54.1063 39.6662 54.7928 38.997 54.9722L37.7863 55.2966L37.1375 52.8752ZM38.9295 49.8779L36.944 42.468C41.1398 41.0145 44.9238 38.624 48.0406 35.453L52.0469 50.4047C47.7622 49.2169 43.29 49.0386 38.9295 49.8779ZM56.5955 52.852C55.9263 53.0312 55.2397 52.6348 55.0604 51.9657L49.8699 32.5945C49.6906 31.9253 50.087 31.2388 50.7562 31.0594C51.4254 30.8801 52.112 31.2766 52.2913 31.9458L57.4818 51.3168C57.6606 51.9844 57.263 52.673 56.5955 52.852Z" fill="white"/>
<path d="M33.0942 47.4708C32.9151 46.8022 32.2277 46.4054 31.5591 46.5845L29.1377 47.2333C28.4691 47.4125 28.0723 48.0998 28.2515 48.7684C28.4305 49.437 29.118 49.8339 29.7865 49.6547L32.2079 49.0059C32.8765 48.8267 33.2733 48.1394 33.0942 47.4708Z" fill="white"/>
<path d="M61.0464 31.8406C60.4469 31.4945 59.6803 31.6999 59.3342 32.2994L58.0808 34.4703C57.7347 35.0698 57.9401 35.8364 58.5396 36.1825C59.1391 36.5287 59.9057 36.3233 60.2518 35.7238L61.5052 33.5528C61.8513 32.9533 61.6459 32.1867 61.0464 31.8406Z" fill="white"/>
<path d="M64.7164 45.5383L62.5455 44.2849C61.946 43.9388 61.1794 44.1442 60.8333 44.7437C60.4871 45.3432 60.6925 46.1098 61.292 46.4559L63.463 47.7093C64.0625 48.0554 64.8291 47.85 65.1752 47.2505C65.5213 46.651 65.3159 45.8844 64.7164 45.5383Z" fill="white"/>
<path d="M66.8897 38.5328C66.7107 37.8642 66.0233 37.4673 65.3547 37.6465L61.9303 38.5641C61.2616 38.7432 60.8648 39.4305 61.044 40.0991C61.2231 40.7677 61.9104 41.1646 62.5791 40.9854L66.0035 40.0678C66.6721 39.8887 67.0689 39.2015 66.8897 38.5328Z" fill="white"/>
</svg>
